<?xml version="1.0" standalone="no"?>
<!DOCTYPE svg PUBLIC "-//W3C//DTD SVG 1.1//EN" "http://www.w3.org/Graphics/SVG/1.1/DTD/svg11.dtd">
<svg xmlns="http://www.w3.org/2000/svg">
<defs >
<font id="MerriweatherSans" horiz-adv-x="1245" ><font-face
    font-family="Merriweather Sans ExtraBold"
    units-per-em="2000"
    panose-1="0 0 0 0 0 0 0 0 0 0"
    ascent="1968"
    descent="-546"
    alphabetic="0" />
<glyph unicode=" " horiz-adv-x="356" />
<glyph unicode="!" horiz-adv-x="654" d="M182 576L130 1738H528L488 576H182ZM318 -22Q230 -22 174 37T118 184Q117 243 146 293T224 375T336 406Q428 406 482 348T536 202Q536 143 508 92T430 10T318 -22Z" />
<glyph unicode="&quot;" horiz-adv-x="1226" d="M232 908L192 1664H518L478 908H232ZM748 908L708 1664H1034L994 908H748Z" />
<glyph unicode="#" horiz-adv-x="1554" d="M284 0L412 1340H708L576 0H284ZM838 0L964 1340H1256L1126 0H838ZM1414 818H180V1050H1414V818ZM1370 298H140V540H1370V298Z" />
<glyph unicode="$" horiz-adv-x="1376" d="M602 1420L614 1722H812L800 1420H602ZM544 -220L556 82H754L744 -220H544ZM664 -16Q558 -16 462 -1T294 36T194 76L240 366Q277 345 340 323T479 286T634 270Q739 270 786 300T834 396Q834 444 805 477T710 546T532
634Q438 679 359 740T232 888T184 1094Q184 1196 222 1272T331 1400T499 1476T714 1502Q882 1502 988 1471T1134 1416L1076 1138Q1031 1173 938 1202T746 1232Q676 1232 631 1217T564 1173T542 1108Q542 1063 568 1029T651 961T798 886Q894 843 969 798T1098 700T1178
580T1206 424Q1206 291 1144 192T960 39T664 -16Z" />
<glyph unicode="%" horiz-adv-x="2234" d="M508 576Q366 575 275 636T140 801T96 1032Q96 1181 159 1284T325 1442T544 1496Q688 1497 779 1436T913 1270T956 1038Q956 890 893 787T728 630T508 576ZM710 0L1252 1494H1530L986 0H710ZM524 802Q599 802 638 863T678
1030Q678 1138 639 1204T528 1270Q453 1270 414 1210T374 1042Q374 934 413 868T524 802ZM1690 -4Q1548 -4 1457 57T1322 223T1278 454Q1278 603 1341 706T1506 862T1724 916Q1868 917 1959 856T2093 691T2136 460Q2136 311 2073 208T1908 51T1690 -4ZM1706 224Q1780
224 1819 285T1858 452Q1858 560 1819 626T1708 692Q1635 692 1595 632T1554 464Q1554 356 1594 290T1706 224Z" />
<glyph unicode="&amp;" horiz-adv-x="1504" d="M942 292Q944 293 957 307T984 334T998 348Q1040 367 1066 409T1105 500T1118 588Q1118 657 1111 692T1100 748H1388Q1393 730 1397 694T1402 588Q1402 422 1343 321T1192 158Q1191 157 1179 142T1153 113T1138 98Q1063
56 955 20T724 -16Q501 -16 354 33T133 175T60 400Q60 513 116 593T270 729T490 824Q491 824 512 828T554 837T576 842Q650 872 706 914T793 1013T824 1142Q824 1171 812 1203T771 1259T688 1282Q621 1282 584 1240T546 1136Q546 1096 557 1063T593 993T655 910T746
794L778 752Q804 716 846 661T940 545T1041 429T1132 336Q1185 293 1231 263T1330 216T1460 200V0Q1435 -6 1397 -11T1308 -16Q1164 -16 1063 37T890 154Q837 207 777 271T656 404T544 537T454 654L424 686Q376 749 332 817T260 961T232 1126Q232 1309 354 1409T682
1510Q815 1510 913 1462T1066 1331T1120 1144Q1120 1038 1086 964T993 836T862 744T710 670Q709 670 683 663T631 649T604 642Q538 615 491 582T419 509T394 418Q394 361 422 318T514 251T682 226Q775 226 833 244T942 292Z" />
<glyph unicode="&apos;" horiz-adv-x="710" d="M232 908L192 1664H518L478 908H232Z" />
<glyph unicode="(" horiz-adv-x="848" d="M582 -352Q550 -330 494 -280T373 -147T252 55T157 334T120 696Q120 878 155 1028T247 1298T367 1505T488 1648T582 1726L768 1598Q732 1568 675 1496T561 1310T465 1041T426 690Q426 539 448 414T506 186T588 4T680 -132T768
-224L582 -352Z" />
<glyph unicode=")" horiz-adv-x="848" d="M266 1740Q298 1718 354 1668T475 1535T596 1333T691 1054T728 692Q728 510 693 360T601 90T481 -117T360 -260T266 -338L80 -210Q116 -180 173 -108T287 78T383 347T422 698Q422 849 400 974T342 1202T260 1384T168 1520T80
1612L266 1740Z" />
<glyph unicode="*" horiz-adv-x="1376" d="M562 570L590 884L632 1042L520 918L266 730L134 968L416 1104L574 1146Q570 1148 548 1152T497 1163T445 1174T414 1182L128 1310L248 1548L516 1364L630 1246Q629 1251 623 1272T608 1322T594 1373T586 1404L546 1716H812L786
1408L744 1248Q747 1251 762 1268T798 1307T834 1347T856 1370L1116 1558L1240 1322L960 1190L800 1146L962 1108L1248 986L1114 742L866 924L746 1042Q747 1038 753 1016T768 967T782 916T790 886L828 570H562Z" />
<glyph unicode="+" horiz-adv-x="1368" d="M546 242V430L552 630L396 626H184V890H396L552 884L546 1084V1278H820V1084L814 884L966 890H1184V626H966L814 630L820 430V242H546Z" />
<glyph unicode="," horiz-adv-x="684" d="M170 -398V-374Q199 -351 224 -283T250 -118Q250 -74 234 -32T194 40T148 74V178L404 310Q460 289 496 235T550 114T568 -10Q568 -121 532 -222T434 -398T298 -500L170 -398Z" />
<glyph unicode="-" horiz-adv-x="1190" d="M180 520V790H1010V520H180Z" />
<glyph unicode="." horiz-adv-x="654" d="M320 -22Q230 -22 174 37T118 184Q118 243 146 293T224 375T336 406Q428 406 482 348T536 202Q536 143 508 92T430 10T320 -22Z" />
<glyph unicode="/" horiz-adv-x="970" d="M72 -354L614 1562H898L356 -354H72Z" />
<glyph unicode="0" horiz-adv-x="1412" d="M696 -16Q534 -16 418 48T228 223T120 474T86 768Q89 992 174 1156T401 1410T720 1500Q884 1500 999 1440T1187 1276T1293 1036T1326 750Q1324 517 1241 345T1017 79T696 -16ZM704 236Q818 236 880 355T942 742Q942 902
916 1015T838 1188T708 1248Q594 1248 532 1134T470 776Q470 614 496 493T574 304T704 236Z" />
<glyph unicode="1" horiz-adv-x="960" d="M346 0V1112Q288 1099 232 1089T120 1070L90 1290Q138 1301 201 1325T330 1379T452 1440T540 1498L720 1474L718 0H346Z" />
<glyph unicode="2" horiz-adv-x="1218" d="M114 0L66 152Q137 194 224 259T400 407T561 585T679 783T724 990Q724 1101 668 1157T514 1214Q420 1214 330 1184T188 1104L74 1300Q114 1341 183 1387T355 1467T598 1500Q782 1500 890 1434T1046 1259T1094 1028Q1094
877 1020 740T816 480T524 248L1146 288V0H114Z" />
<glyph unicode="3" horiz-adv-x="1172" d="M122 30L120 266Q174 254 232 245T340 236Q447 236 528 263T656 343T702 470Q702 510 680 550T607 615T468 636L336 606L288 830Q356 842 414 860T512 900Q578 938 607 984T640 1084Q645 1155 596 1193T464 1232Q365
1232 293 1200T170 1132L66 1358Q94 1388 169 1422T342 1481T540 1506Q689 1506 794 1464T954 1344T1010 1154Q1010 1054 971 977T864 843T706 746V780Q845 775 929 724T1050 595T1088 430Q1088 308 1006 205T776 40T430 -22Q330 -22 253 -4T122 30Z" />
<glyph unicode="4" horiz-adv-x="1422" d="M148 296L64 424Q103 508 138 587T208 741T276 889T342 1035T409 1183T479 1337T554 1500H668L912 1366Q878 1303 848 1249T789 1145T733 1048T677 951T619 848T554 730L444 552H1352V296H148ZM794 0V552L830 930H1136V0H794Z" />
<glyph unicode="5" horiz-adv-x="1290" d="M314 -18Q289 -18 245 -15T168 -4V256Q189 255 209 255T248 254Q418 254 537 284T718 374T780 528Q780 620 721 667T530 714Q464 714 388 694T246 650L182 684L244 1486H1108L1076 1192H502L472 932Q534 952 596 962T716
972Q929 972 1040 858T1152 542Q1152 409 1094 305T927 129T663 20T314 -18Z" />
<glyph unicode="6" horiz-adv-x="1422" d="M116 608Q116 786 171 936T320 1206T527 1412T761 1550T988 1614L1070 1400Q931 1366 825 1290T646 1112T538 896T500 672Q499 543 521 444T595 289T730 232Q802 232 850 262T923 349T948 486Q948 581 924 637T861 719T776
744Q725 744 696 733T646 712L580 900Q595 920 636 947T740 994T888 1014Q1011 1014 1105 956T1253 793T1306 554Q1306 439 1269 336T1157 154T967 29T698 -16Q529 -16 398 64T191 286T116 608Z" />
<glyph unicode="7" horiz-adv-x="1282" d="M286 0Q317 65 360 161T452 370T552 599T647 823T729 1016T784 1150L120 1152V1486H1114L1192 1372L690 0H286Z" />
<glyph unicode="8" horiz-adv-x="1370" d="M700 -16Q563 -16 455 12T271 94T156 221T116 388Q116 469 157 547T291 692T542 804L666 656Q605 628 558 594T483 513T456 404Q456 355 480 307T557 228T696 196Q751 196 797 221T870 288T898 378Q898 434 858 475T753
550T609 620T452 697T308 796T202 931T162 1118Q162 1226 222 1315T398 1457T682 1510Q850 1510 964 1464T1137 1338T1196 1156Q1196 1069 1157 988T1031 843T802 748L680 888Q788 921 833 987T878 1142Q878 1207 829 1252T688 1298Q600 1298 549 1252T498 1148Q498
1086 539 1038T648 950T797 871T959 791T1109 696T1219 575T1262 416Q1263 279 1190 183T990 35T700 -16Z" />
<glyph unicode="9" horiz-adv-x="1420" d="M120 948Q120 1107 189 1233T396 1433T736 1506Q907 1506 1036 1427T1236 1208T1308 884Q1308 703 1251 550T1099 276T886 66T648 -75T420 -140L334 66Q477 101 587 180T772 365T886 586T926 810Q927 944 904 1045T829
1202T694 1258Q625 1258 577 1229T504 1146T478 1016Q478 868 529 802T656 736Q710 736 736 744T784 760L848 572Q827 544 748 506T540 468Q416 468 322 531T174 702T120 948Z" />
<glyph unicode=":" horiz-adv-x="654" d="M320 -22Q230 -22 174 37T118 184Q118 243 146 293T224 375T336 406Q428 406 482 348T536 202Q536 143 508 92T430 10T320 -22ZM320 696Q230 696 174 755T118 902Q118 961 146 1011T224 1093T336 1124Q428 1124 482 1066T536
920Q536 861 508 810T430 728T320 696Z" />
<glyph unicode=";" horiz-adv-x="654" d="M410 -398V-374Q439 -351 464 -283T490 -118Q490 -74 474 -32T434 40T388 74V178L644 310Q700 289 736 235T790 114T808 -10Q808 -121 772 -222T674 -398T538 -500L410 -398ZM320 696Q230 696 174 755T118 902Q118 961
146 1011T224 1093T336 1124Q428 1124 482 1066T536 920Q536 861 508 810T430 728T320 696Z" />
<glyph unicode="&lt;" horiz-adv-x="1344" d="M206 682V834L1128 1324V1008L586 736V774L1128 534V208L206 682Z" />
<glyph unicode="=" horiz-adv-x="1396" d="M248 882V1128H1150V882H248ZM248 386V632H1150V386H248Z" />
<glyph unicode="&gt;" horiz-adv-x="1342" d="M1128 682V834L206 1324V1008L748 736V774L206 534V208L1128 682Z" />
<glyph unicode="?" horiz-adv-x="1108" d="M322 522Q298 563 274 620T250 768Q249 860 284 923T372 1035T476 1126T564 1221T600 1346Q600 1430 541 1479T334 1528Q253 1528 195 1511T104 1480V1742Q128 1758 180 1771T297 1793T424 1802Q568 1802 674 1773T851
1688T956 1556T988 1384Q988 1287 958 1219T881 1103T781 1014T679 932T599 837T564 708Q561 665 573 622T598 522H322ZM472 -22Q387 -22 333 34T278 174Q277 230 305 278T382 355T490 384Q577 384 629 329T682 190Q682 134 654 86T579 8T472 -22Z" />
<glyph unicode="@" horiz-adv-x="2192" d="M1016 -450Q839 -450 681 -400T401 -244T210 26T140 418Q140 663 226 863T462 1207T809 1428T1226 1506Q1458 1506 1642 1423T1934 1177T2042 778Q2042 577 1990 430T1850 186T1657 43T1442 -4Q1343 -4 1292 37T1234
178Q1231 225 1239 303T1284 520Q1286 520 1304 520T1341 520T1360 520Q1333 442 1292 352T1194 180T1060 48T884 -4Q812 -4 744 44T631 189T590 432Q592 533 627 641T735 843T919 995T1188 1054Q1245 1054 1307 1041T1412 1000L1604 1032Q1593 979 1578 902T1545
737T1510 565T1478 412Q1454 297 1464 250T1514 202Q1567 202 1622 238T1723 343T1797 516T1826 752Q1826 919 1773 1029T1631 1202T1435 1293T1220 1320Q1052 1320 898 1260T622 1084T431 800T360 416Q360 221 419 90T576 -119T794 -230T1036 -264Q1165 -264 1252
-245T1398 -200T1498 -150L1542 -312Q1472 -360 1349 -405T1016 -450ZM960 248Q999 248 1041 282T1124 375T1199 505T1258 652T1290 794Q1272 815 1236 827T1152 840Q1093 840 1042 808T951 720T889 594T866 450Q865 348 891 298T960 248Z" />
<glyph unicode="A" horiz-adv-x="1426" d="M372 0H-18L500 1496H922L1444 0H1050L752 1002L704 1196L654 1002L372 0ZM306 278L348 538H1030L1070 278H306Z" />
<glyph unicode="B" horiz-adv-x="1428" d="M168 0V1488L350 1486Q401 1486 453 1489T567 1496T704 1500Q911 1500 1037 1454T1219 1322T1276 1118Q1276 1039 1252 972T1177 856T1052 786Q1138 775 1206 731T1314 616T1354 450Q1354 314 1299 210T1110 46T738 -14Q635
-14 527 -9T356 0H168ZM538 882Q550 880 569 879T609 876T650 875T682 874Q801 874 860 920T920 1084Q920 1177 855 1213T666 1250Q652 1250 625 1249T573 1246T538 1238V882ZM538 252Q551 244 583 239T652 232T720 230Q848 230 911 280T974 448Q974 544 912 594T708
644Q690 644 665 644T614 642T568 640T538 636V252Z" />
<glyph unicode="C" horiz-adv-x="1288" d="M84 740Q84 929 142 1071T304 1310T546 1454T844 1502Q947 1502 1016 1491T1136 1465T1232 1442L1184 1122Q1163 1136 1125 1156T1025 1192T874 1208Q760 1208 668 1157T522 1006T468 762Q468 615 515 505T657 334T890
272Q953 272 1018 287T1135 325T1212 368V62Q1174 46 1123 28T1003 -3T848 -16Q602 -16 432 77T173 340T84 740Z" />
<glyph unicode="D" horiz-adv-x="1516" d="M160 0V1486Q183 1486 206 1486T252 1486T298 1486Q335 1486 404 1490T554 1498T704 1502Q1082 1502 1258 1313T1434 780Q1434 527 1345 349T1088 77T682 -16Q573 -14 476 -7T292 0Q270 0 248 0T204 0T160 0ZM534 274Q563
265 609 262T704 258Q808 259 885 311T1005 471T1048 748Q1048 927 1009 1033T891 1187T690 1234Q653 1234 607 1230T534 1220V274Z" />
<glyph unicode="E" horiz-adv-x="1232" d="M160 0V1486H1100V1208H530V894H970V624H530V284H1158V0H160Z" />
<glyph unicode="F" horiz-adv-x="1128" d="M160 0V1486H1088V1208H532V854H954V578H532V0H160Z" />
<glyph unicode="G" horiz-adv-x="1472" d="M84 736Q84 942 143 1088T307 1325T551 1459T852 1502Q961 1502 1035 1492T1166 1468T1280 1444L1270 1132Q1212 1162 1115 1186T868 1210Q739 1210 649 1157T510 1003T462 762Q462 618 501 505T617 327T804 262Q882
262 933 270T1020 292V594L1056 550L808 568V834H1360V84Q1317 83 1272 68T1168 33T1023 -1T810 -16Q589 -16 426 73T174 330T84 736Z" />
<glyph unicode="H" horiz-adv-x="1576" d="M160 0V1486H534V884H1044V1486H1416V0H1044V616H534V0H160Z" />
<glyph unicode="I" horiz-adv-x="736" d="M180 0V1486H556V0H180Z" />
<glyph unicode="J" horiz-adv-x="782" d="M46 -324L-34 -138Q38 -109 104 -55T200 108Q223 186 227 295T232 594V1486H606V598Q606 453 607 325T588 92Q567 -16 505 -95T359 -227T193 -303T46 -324Z" />
<glyph unicode="K" horiz-adv-x="1426" d="M160 0V1486H524V854L994 1486H1398L848 770L762 704L484 374L524 594V0H160ZM944 118Q907 189 869 255T794 383T718 505T640 622L774 768L880 888Q909 853 952 788T1046 638T1153 461T1261 277T1360 108Q1371 90 1381
72T1402 36T1424 0H1006Q994 20 981 46T944 118Z" />
<glyph unicode="L" horiz-adv-x="1088" d="M160 0V1486H528V300H1030V0H160Z" />
<glyph unicode="M" horiz-adv-x="1942" d="M68 0L240 1486H742L922 724L990 376L1044 724L1204 1486H1690L1874 0H1516L1454 782L1432 1210L1340 770L1140 -8H810L594 770L496 1210L470 782L412 0H68Z" />
<glyph unicode="N" horiz-adv-x="1576" d="M160 0V1486H508L1016 670L1206 270H1138L1078 832V1486H1416V0H1042L560 796L342 1252H424L498 642V0H160Z" />
<glyph unicode="O" horiz-adv-x="1552" d="M772 -16Q552 -20 397 73T161 340T84 750Q89 1014 181 1177T434 1418T800 1502Q1011 1508 1162 1417T1392 1153T1468 746Q1463 482 1374 315T1130 68T772 -16ZM778 252Q922 252 1005 368T1088 756Q1088 896 1056 1002T959
1167T794 1226Q703 1226 628 1181T509 1030T464 740Q464 598 499 488T603 315T778 252Z" />
<glyph unicode="P" horiz-adv-x="1352" d="M160 0V1486H306Q408 1486 510 1494T724 1502Q903 1502 1031 1452T1227 1286T1296 978Q1296 714 1140 571T686 428Q628 428 593 429T534 430V0H160ZM534 704Q566 701 603 699T686 696Q756 696 811 723T899 813T932 980Q932
1100 871 1173T678 1242Q644 1242 605 1240T534 1232V704Z" />
<glyph unicode="Q" horiz-adv-x="1566" d="M1192 -346Q1027 -346 926 -312T767 -201T672 8L850 54H952Q969 -5 1000 -33T1087 -71T1234 -80Q1276 -80 1317 -71T1388 -52V-302Q1361 -315 1312 -330T1192 -346ZM772 -16Q552 -20 397 73T161 340T84 750Q89 1014 181
1177T434 1418T800 1502Q1011 1508 1162 1417T1392 1153T1468 746Q1463 482 1374 315T1130 68T772 -16ZM778 252Q922 252 1005 368T1088 756Q1088 896 1056 1002T959 1167T794 1226Q703 1226 628 1181T509 1030T464 740Q464 598 499 488T603 315T778 252Z" />
<glyph unicode="R" horiz-adv-x="1428" d="M532 0H160V1486Q181 1486 202 1486T245 1486T288 1486Q368 1486 472 1494T736 1502Q834 1502 932 1481T1111 1407T1241 1262T1290 1030Q1290 878 1240 780T1100 628T894 556Q855 549 816 542T713 531T532 526V0ZM532
784Q552 781 586 779T655 777T714 776Q828 776 880 848T932 1024Q932 1079 913 1128T841 1209T690 1240Q650 1240 609 1236T532 1222V784ZM980 0Q968 15 958 36T926 106Q896 173 872 246T824 384T767 488T688 530L774 598L1010 630Q1066 605 1107 548T1183 417T1252
262T1328 108Q1343 81 1359 54T1390 0H980Z" />
<glyph unicode="S" horiz-adv-x="1198" d="M580 -16Q474 -16 378 -1T210 36T110 76L156 366Q193 345 256 323T395 286T550 270Q655 270 702 300T750 396Q750 444 721 477T626 546T448 634Q354 679 275 740T148 888T100 1094Q100 1196 138 1272T247 1400T415 1476T630
1502Q798 1502 904 1471T1050 1416L992 1138Q947 1173 854 1202T662 1232Q592 1232 547 1217T480 1173T458 1108Q458 1063 484 1029T567 961T714 886Q810 843 885 798T1014 700T1094 580T1122 424Q1122 291 1060 192T876 39T580 -16Z" />
<glyph unicode="T" horiz-adv-x="1224" d="M424 0V1200H28V1486H1196V1200H800V0H424Z" />
<glyph unicode="U" horiz-adv-x="1506" d="M760 -16Q530 -16 392 64T193 288T132 624L136 1486H506L502 668Q501 512 529 428T614 311T754 278Q838 278 894 312T978 431T1006 668V1486H1374V618Q1374 320 1228 152T760 -16Z" />
<glyph unicode="V" horiz-adv-x="1376" d="M528 -4L-12 1486H384L622 736L696 446L770 736L992 1486H1388L852 -4H528Z" />
<glyph unicode="W" horiz-adv-x="1952" d="M378 -10L-12 1486H360L516 656L580 170H542L616 656L812 1486H1150L1352 656L1432 168H1388L1452 656L1606 1486H1964L1572 -10H1206L1016 766L918 1410H1014L926 766L738 -10H378Z" />
<glyph unicode="X" horiz-adv-x="1362" d="M20 0L492 818L486 714L32 1486L434 1488L638 1114L730 940H666L754 1114L948 1486H1332L870 686L876 780L1346 0H940L732 382L630 588L708 590L608 382L406 0H20Z" />
<glyph unicode="Y" horiz-adv-x="1258" d="M438 0V592L470 460L-52 1486H356L576 1006L666 770H616L692 1006L916 1486H1310L784 458L818 592V0H438Z" />
<glyph unicode="Z" horiz-adv-x="1254" d="M80 0L40 82L650 1120L714 1214H110V1486H1178L1218 1408L620 380L548 278H1182V0H80Z" />
<glyph unicode="[" horiz-adv-x="828" d="M160 66V1452Q160 1548 178 1604T238 1684T356 1708Q475 1708 557 1700T718 1684V1506H472V-12H718V-182Q640 -192 558 -201T356 -210Q281 -210 239 -181T178 -91T160 66Z" />
<glyph unicode="\" horiz-adv-x="970" d="M898 -354L356 1562H72L614 -354H898Z" />
<glyph unicode="]" horiz-adv-x="828" d="M668 66V1452Q668 1548 650 1604T590 1684T472 1708Q353 1708 271 1700T110 1684V1506H356V-12H110V-182Q188 -192 270 -201T472 -210Q547 -210 589 -181T650 -91T668 66Z" />
<glyph unicode="^" horiz-adv-x="1356" d="M134 478L562 1496H796L1222 478H906L668 1074H688L458 478H134Z" />
<glyph unicode="_" horiz-adv-x="1660" d="M-36 -398V-228H1696V-398H-36Z" />
<glyph unicode="`" horiz-adv-x="684" d="M636 1348L472 1194Q438 1211 381 1254T260 1355T143 1477T64 1598L302 1782Q343 1714 402 1631T523 1471T636 1348Z" />
<glyph unicode="a" horiz-adv-x="1234" d="M446 -16Q336 -16 255 29T129 155T84 340Q84 438 137 510T284 622Q351 651 430 665T588 685T738 690L790 626L738 516Q703 515 666 511T595 499T542 482Q511 469 484 444T456 358Q456 279 499 244T598 208Q627 208 655
215T706 232T738 254L796 180L756 94Q710 54 635 19T446 -16ZM1098 0H756V166H738V756Q738 830 698 853T582 876Q518 876 449 866T314 839T200 798L126 1010Q167 1035 244 1063T419 1112T616 1132Q791 1132 897 1091T1050 958T1098 712V0Z" />
<glyph unicode="b" horiz-adv-x="1324" d="M140 1622H496V1220L486 972L496 966V170L140 62V1622ZM654 -20Q566 -20 479 -11T319 13T198 40T140 62L496 256Q511 238 550 230T648 222Q710 222 759 263T837 384T866 576Q866 741 814 800T678 860Q621 860 572 841T496
802L458 988Q481 1013 524 1046T635 1103T802 1128Q921 1128 1020 1071T1180 896T1240 598Q1240 409 1168 271T965 56T654 -20Z" />
<glyph unicode="c" horiz-adv-x="1008" d="M68 546Q68 709 128 841T312 1050T632 1128Q745 1128 829 1111T940 1074L900 802Q867 820 815 834T682 848Q624 848 568 823T474 738T434 572Q432 457 465 389T556 292T684 262Q755 262 815 274T912 302L958 74Q912 26
813 5T606 -16Q422 -16 303 57T126 258T68 546Z" />
<glyph unicode="d" horiz-adv-x="1344" d="M862 0V132L832 154V884L840 892L832 1220V1624H1188V0H862ZM520 -16Q402 -16 303 42T144 219T84 518Q84 707 153 844T349 1054T646 1128Q750 1128 814 1108T896 1074L834 846Q812 864 769 871T674 878Q611 878 563 841T486
727T458 536Q457 380 508 317T644 254Q697 254 750 270T834 308L870 126Q847 101 803 68T689 9T520 -16Z" />
<glyph unicode="e" horiz-adv-x="1192" d="M638 -16Q368 -16 226 137T84 562Q84 724 150 852T340 1054T642 1128Q731 1128 814 1108T963 1037T1069 898T1110 676Q1110 616 1107 562T1098 472H270L290 652H774Q779 733 767 787T722 869T634 896Q571 896 528 862T462
743T442 510Q444 413 477 354T573 267T722 240Q776 240 835 248T944 269T1022 296L1078 104Q1041 74 976 47T824 2T638 -16Z" />
<glyph unicode="f" horiz-adv-x="860" d="M216 0V876H78V1086L216 1114V1228Q216 1348 254 1428T355 1556T495 1623T648 1644Q734 1644 789 1636T864 1622V1374Q845 1383 809 1390T720 1398Q657 1398 619 1355T580 1214V1114H822V876H580V0H216Z" />
<glyph unicode="g" horiz-adv-x="1320" d="M628 -504Q333 -501 204 -411T74 -166Q74 -109 100 -63T179 18T308 72L502 60Q488 49 468 29T433 -24T418 -102Q418 -152 436 -199T504 -277T648 -308Q721 -308 778 -292T869 -239T902 -144Q902 -101 887 -66T827 -11T690
10H448Q423 10 406 18T366 30Q341 36 336 40T304 48Q229 63 192 96T156 196Q157 235 170 279T222 363T342 432L536 404Q493 388 476 358T458 300Q458 260 489 244T600 228H802Q932 228 1018 204T1156 139T1228 43T1250 -70Q1250 -181 1199 -263T1059 -398T859 -478T628
-504ZM606 374Q457 374 346 416T174 542T112 746Q112 867 171 952T341 1083T606 1128Q763 1128 875 1084T1048 955T1108 752Q1108 631 1054 547T889 418T606 374ZM608 562Q685 562 732 598T780 748Q780 835 738 878T612 922Q560 922 526 907T475 854T458 750Q458
672 490 617T608 562ZM970 864L934 1016Q952 1042 1009 1078T1152 1114H1296V864H970Z" />
<glyph unicode="h" horiz-adv-x="1314" d="M140 0V1624H502V1206L482 956L472 986Q507 1018 563 1051T688 1106T832 1130Q1014 1135 1100 1029T1186 698V0H822V636Q822 764 787 806T680 846Q646 846 595 831T502 774V0H140Z" />
<glyph unicode="i" horiz-adv-x="658" d="M148 0V1114H510V0H148ZM312 1504Q225 1504 169 1556T112 1690Q112 1745 142 1791T221 1864T330 1892Q419 1892 473 1841T528 1706Q528 1624 465 1564T312 1504Z" />
<glyph unicode="j" horiz-adv-x="662" d="M-102 -470V-242Q-90 -248 -49 -255T30 -262Q96 -262 130 -207T164 2V1114H518V80Q518 -138 466 -264T318 -443T90 -496Q57 -496 18 -492T-54 -481T-102 -470ZM326 1250Q239 1250 183 1302T126 1436Q126 1491 156 1537T235
1610T344 1638Q433 1638 487 1587T542 1452Q542 1370 479 1310T326 1250Z" />
<glyph unicode="k" horiz-adv-x="1240" d="M1234 1114L482 304L492 378L496 184V0H140V662V1622H496V1008L480 598L438 648L822 1114H1234ZM582 466L818 716L1260 0H858L582 466Z" />
<glyph unicode="l" horiz-adv-x="630" d="M134 0V1624H496V0H134Z" />
<glyph unicode="m" horiz-adv-x="1982" d="M144 0V1114H474L482 994Q520 1025 577 1056T704 1108T846 1130Q957 1133 1032 1093T1144 959T1182 704V0H822V636Q822 717 809 763T766 828T684 846Q645 846 594 828T504 774V0H144ZM1168 766L1108 988Q1134 1012 1190
1046T1324 1105T1496 1130Q1608 1131 1688 1092T1811 959T1854 702V0H1492V638Q1492 719 1479 764T1436 828T1352 846Q1295 846 1245 819T1168 766Z" />
<glyph unicode="n" horiz-adv-x="1314" d="M144 0V1114H474L482 984Q517 1019 574 1052T701 1107T846 1130Q1016 1133 1101 1038T1186 702V0H824V636Q824 758 793 803T682 846Q656 846 624 838T561 814T504 774V0H144Z" />
<glyph unicode="o" horiz-adv-x="1250" d="M616 -16Q462 -16 355 31T182 162T88 352T60 580Q63 758 137 880T340 1065T636 1128Q842 1128 964 1046T1140 829T1190 534Q1188 355 1115 233T912 47T616 -16ZM624 234Q731 234 772 312T814 550Q814 640 797 714T740
833T630 878Q521 878 479 799T436 568Q436 476 453 400T512 279T624 234Z" />
<glyph unicode="p" horiz-adv-x="1352" d="M156 -494V1114H498V978L518 954V144L514 42L518 -136V-494H156ZM698 -16Q599 -16 537 5T456 40L518 268Q539 247 580 238T670 228Q734 228 782 268T859 385T888 576Q888 737 838 798T702 860Q648 860 598 843T518 802L480
988Q503 1013 546 1046T657 1103T824 1128Q943 1128 1044 1071T1206 896T1268 598Q1268 409 1197 272T998 59T698 -16Z" />
<glyph unicode="q" horiz-adv-x="1350" d="M834 -136L838 106L834 192V954L856 978L882 1072L1194 1114V-494H834V-136ZM526 -16Q408 -16 308 42T146 219T84 518Q84 707 155 844T354 1054T652 1128Q753 1128 838 1107T968 1062L834 846Q812 864 772 871T680 878Q617
878 569 841T492 727T464 536Q463 380 514 317T650 254Q703 254 754 270T834 308L872 126Q849 101 806 68T694 9T526 -16Z" />
<glyph unicode="r" horiz-adv-x="930" d="M476 656L462 918Q482 979 529 1027T643 1102T788 1130Q812 1130 836 1127T870 1118V760Q857 769 829 778T750 788Q670 788 616 765T528 710T476 656ZM136 0V1114H452L470 916L498 886V0H136Z" />
<glyph unicode="s" horiz-adv-x="1030" d="M86 74L122 324Q138 310 188 287T308 245T450 226Q537 225 574 244T612 306Q612 335 585 356T512 397T410 436Q288 480 217 533T114 652T84 804Q84 912 146 984T314 1092T546 1128Q683 1128 775 1105T904 1060L872 806Q852
824 809 844T712 878T604 892Q511 892 473 873T434 816Q434 771 475 750T604 696Q736 648 816 599T933 488T970 338Q970 164 842 74T500 -16Q408 -16 325 -2T180 34T86 74Z" />
<glyph unicode="t" horiz-adv-x="920" d="M502 -16Q382 -16 311 24T208 144T176 346V876H48V1068Q122 1089 170 1111T240 1180Q251 1203 264 1235T291 1302T318 1368H538V1114H826V876H538V480Q538 376 549 328T589 267T666 254Q691 254 723 260T784 277T830 298L872
98Q846 72 790 46T658 2T502 -16Z" />
<glyph unicode="u" horiz-adv-x="1296" d="M498 -16Q376 -16 302 19T189 118T137 268T124 458V1114H484V450Q484 366 500 322T549 261T632 244Q665 244 696 252T752 273T790 296V1114H1152V-16H890Q856 -16 839 -5T822 42V112L830 94Q791 62 734 37T615 -2T498 -16Z" />
<glyph unicode="v" horiz-adv-x="1172" d="M414 -16L-6 1114H380L524 628L628 208H564L660 628L798 1114H1178L760 -16H414Z" />
<glyph unicode="w" horiz-adv-x="1730" d="M332 -16L-2 1114H350L452 664L548 200H472L580 664L712 1114H1036L1168 664L1268 202H1196L1290 664L1396 1114H1732L1380 -16H1064L902 532L830 888H890L816 532L660 -16H332Z" />
<glyph unicode="x" horiz-adv-x="1198" d="M8 0L410 588L418 522L10 1114H402L562 860L648 716H570L644 860L792 1114H1182L768 530V610L1190 0H794L618 284L544 414H630L566 284L408 0H8Z" />
<glyph unicode="y" horiz-adv-x="1180" d="M118 -476V-198Q135 -204 175 -211T240 -218Q292 -218 349 -205T453 -140T524 28L538 0H380L-4 1114H378L538 528L626 162H598L678 528L802 1114H1182L832 -26Q771 -225 677 -325T476 -464Q439 -479 384 -487T284 -496Q269
-496 232 -493T159 -485T118 -476Z" />
<glyph unicode="z" horiz-adv-x="1068" d="M76 0L34 82L496 778L554 868H116L118 1114H998L1034 1020L582 344L518 254H998V0H76Z" />
<glyph unicode="{" horiz-adv-x="974" d="M320 58V516Q320 557 278 587T176 636T68 660V858Q117 863 176 879T277 923T320 994V1452Q320 1596 378 1658T548 1720Q629 1720 717 1713T868 1696V1514H626V986Q626 952 617 926T590 878Q567 849 526 825T437 781T348
748V768Q389 755 435 737T523 695T588 642Q608 623 617 596T626 534V-12H868V-182Q805 -200 717 -208T548 -216Q436 -216 378 -151T320 58Z" />
<glyph unicode="|" horiz-adv-x="842" d="M280 -182V1738H562V-182H280Z" />
<glyph unicode="}" horiz-adv-x="974" d="M648 58V516Q648 557 690 587T792 636T900 660V858Q851 863 792 879T691 923T648 994V1452Q648 1596 590 1658T420 1720Q339 1720 251 1713T100 1696V1514H342V986Q342 952 351 926T378 878Q401 849 442 825T531 781T620
748V768Q579 755 533 737T445 695T380 642Q360 623 351 596T342 534V-12H100V-182Q163 -200 251 -208T420 -216Q532 -216 590 -151T648 58Z" />
<glyph unicode="~" horiz-adv-x="1412" d="M326 670L186 814Q197 850 243 904T361 1001T522 1044Q599 1044 650 1021T740 968T818 915T910 892Q982 892 1027 927T1102 994L1226 834Q1216 794 1171 744T1055 656T894 618Q818 618 770 641T687 695T614 748T516 772Q446
772 402 737T326 670Z" />
<glyph unicode="&#xa0;" horiz-adv-x="356" />
<glyph unicode="&#xa1;" horiz-adv-x="654" d="M464 736L516 -426H118L158 736H464ZM328 1334Q416 1334 472 1275T528 1128Q529 1069 500 1019T422 937T310 906Q218 906 164 964T110 1110Q110 1169 138 1220T216 1302T328 1334Z" />
<glyph unicode="&#xa2;" horiz-adv-x="1172" d="M568 1042L576 1344H756L750 1042H568ZM538 -210L544 90H726L720 -210H538ZM118 546Q118 709 178 841T362 1050T682 1128Q795 1128 879 1111T990 1074L950 802Q917 820 865 834T732 848Q674 848 618 823T524 738T484
572Q482 457 515 389T606 292T734 262Q805 262 865 274T962 302L1008 74Q962 26 863 5T656 -16Q472 -16 353 57T176 258T118 546Z" />
<glyph unicode="&#xa3;" horiz-adv-x="1578" d="M100 122Q100 179 139 218T239 279T360 304Q374 317 381 358T391 449T394 538V1002Q394 1147 457 1260T645 1437T952 1502Q1095 1502 1186 1469T1330 1402L1188 1136Q1160 1160 1102 1188T974 1216Q912 1216 864
1199T788 1123T760 942V560Q760 457 736 383T664 268Q709 257 751 245T840 225T942 216Q1047 216 1099 255T1152 358Q1152 405 1130 443T1086 494L1342 616Q1363 603 1398 572T1463 485T1492 346Q1492 189 1380 87T1024 -16Q915 -16 830 -1T680 34T562 69T466 84Q436
54 376 23T256 -8Q222 -8 186 4T125 44T100 122ZM224 672V870H1044V672H224Z" />
<glyph unicode="&#xa4;" horiz-adv-x="1528" d="M762 304Q641 304 540 363T379 525T318 754Q318 881 378 983T539 1146T762 1206Q884 1206 986 1146T1149 984T1210 754Q1210 627 1149 525T986 364T762 304ZM764 552Q821 552 865 580T935 654T960 754Q960 809 935
855T866 928T764 956Q708 956 663 929T592 855T566 754Q566 700 592 654T663 580T764 552ZM418 982L210 1196L354 1352L562 1136L418 982ZM1112 976L964 1134L1192 1364L1338 1206L1112 976ZM354 158L208 312L416 526L564 372L354 158ZM1174 156L962 374L1108 530L1320
310L1174 156Z" />
<glyph unicode="&#xa5;" horiz-adv-x="1542" d="M604 0V844L700 582L126 1486H514L710 1130L820 886Q818 886 801 886T766 886T746 886L854 1128L1054 1486H1436L870 590L938 844V0H604ZM258 626V832H1274V626H258ZM258 246V450H1274V246H258Z" />
<glyph unicode="&#xa6;" horiz-adv-x="842" d="M280 -182V590H562V-182H280ZM280 950V1738H562V950H280Z" />
<glyph unicode="&#xa7;" horiz-adv-x="1372" d="M234 1294Q234 1383 273 1447T380 1553T530 1614T702 1634Q843 1634 935 1611T1072 1562L1022 1302Q992 1325 923 1354T734 1382Q688 1382 651 1373T591 1342T568 1282Q568 1246 602 1218T694 1163T819 1109T955
1044T1080 960T1171 845T1206 690Q1206 561 1125 464T922 298L794 344Q814 370 844 420T897 524T920 620Q920 682 883 726T785 806T650 873T504 941T370 1025T271 1137T234 1294ZM1150 176Q1150 79 1109 10T999 -103T845 -167T670 -188Q531 -188 418 -159T258 -98L308
164Q344 136 430 101T640 66Q689 67 729 77T792 111T816 174Q816 214 770 242T650 298T494 358T339 439T219 558T172 734Q172 851 251 942T448 1094L592 1036Q573 1010 543 973T490 892T466 808Q466 750 503 711T601 642T735 585T881 526T1015 448T1113 337T1150
176Z" />
<glyph unicode="&#xa8;" horiz-adv-x="1010" d="M246 1250Q162 1250 111 1302T60 1436Q60 1517 120 1576T262 1636Q348 1636 396 1585T444 1452Q444 1370 387 1310T246 1250ZM750 1250Q668 1250 617 1302T566 1436Q566 1517 625 1576T768 1636Q852 1636 901 1585T950
1452Q950 1370 893 1310T750 1250Z" />
<glyph unicode="&#xa9;" horiz-adv-x="2042" d="M170 940Q170 1119 235 1274T417 1545T688 1728T1020 1794Q1199 1794 1353 1728T1624 1546T1806 1274T1872 940Q1872 762 1807 606T1625 333T1354 149T1020 82Q842 82 688 148T418 332T236 606T170 940ZM310 940Q310
789 363 656T512 423T737 265T1020 208Q1174 208 1304 265T1530 422T1679 656T1732 940Q1732 1092 1679 1224T1530 1457T1304 1615T1020 1672Q867 1672 738 1615T512 1458T363 1225T310 940ZM584 932Q584 1070 638 1180T801 1355T1068 1420Q1151 1420 1218 1403T1316
1368L1280 1166Q1250 1189 1191 1204T1072 1220Q966 1220 899 1151T830 968Q829 806 898 737T1074 668Q1152 668 1208 688T1292 730L1336 560Q1291 521 1208 491T1026 460Q892 460 793 525T640 697T584 932Z" />
<glyph unicode="&#xaa;" horiz-adv-x="1054" d="M402 648Q266 648 188 723T110 924Q110 1022 166 1089T304 1188Q356 1207 413 1219T530 1236T650 1242L692 1154L650 1094Q593 1094 546 1088T460 1060Q421 1038 409 1007T396 946Q396 901 430 874T510 846Q564
846 600 860T650 884L692 804L662 742Q637 715 563 682T402 648ZM942 654H778Q723 654 693 661T662 728V792H650V1278Q650 1343 615 1364T490 1386Q444 1386 383 1374T268 1345T192 1312L136 1484Q154 1501 220 1526T374 1570T540 1590Q744 1590 843 1522T942 1280V1142V654Z"
/>
<glyph unicode="&#xab;" horiz-adv-x="1982" d="M216 462V740L844 1146L928 900L480 538V664L928 302L844 54L216 462ZM1014 462V740L1662 1146L1746 900L1278 538V664L1746 302L1662 54L1014 462Z" />
<glyph unicode="&#xac;" horiz-adv-x="1444" d="M238 590V832H1206V292H940V590H238Z" />
<glyph unicode="&#xad;" horiz-adv-x="1190" d="M180 520V790H1010V520H180Z" />
<glyph unicode="&#xae;" horiz-adv-x="2042" d="M166 940Q166 1118 232 1273T415 1545T687 1728T1020 1794Q1199 1794 1354 1728T1626 1545T1810 1273T1876 940Q1876 762 1810 606T1627 333T1354 149T1020 82Q842 82 687 148T415 332T232 606T166 940ZM306 940Q306
789 360 656T511 423T739 265T1020 208Q1172 208 1302 265T1530 422T1682 656T1736 940Q1736 1091 1682 1223T1531 1455T1303 1613T1020 1670Q869 1670 739 1613T512 1456T360 1223T306 940ZM684 474V1416Q708 1416 731 1416T778 1416Q819 1416 853 1417T930 1419T1036
1420Q1216 1420 1305 1344T1394 1152Q1394 1044 1354 957T1206 840Q1255 812 1285 767T1340 671T1392 572Q1406 550 1418 530T1458 476H1208Q1193 493 1184 513T1160 560Q1141 599 1120 651T1069 750T992 816Q986 815 969 815T934 814T904 814V474H684ZM904 974Q918
971 938 970T980 968T1020 968Q1095 968 1134 1007T1174 1124Q1174 1190 1136 1226T1002 1260Q975 1260 953 1259T904 1250V974Z" />
<glyph unicode="&#xaf;" horiz-adv-x="708" d="M52 1372V1604H656V1372H52Z" />
<glyph unicode="&#xb0;" horiz-adv-x="954" d="M96 1248Q96 1355 145 1439T281 1573T476 1622Q586 1622 672 1573T808 1438T858 1248Q858 1141 809 1056T674 922T476 872Q369 872 283 922T147 1058T96 1248ZM316 1248Q316 1173 364 1128T476 1082Q544 1082 591
1127T638 1248Q638 1323 590 1368T476 1414Q410 1414 363 1370T316 1248Z" />
<glyph unicode="&#xb1;" horiz-adv-x="1368" d="M228 0V228H1126V0H228ZM546 242V430L552 630L396 626H184V890H396L552 884L546 1084V1278H820V1084L814 884L966 890H1184V626H966L814 630L820 430V242H546Z" />
<glyph unicode="&#xb2;" horiz-adv-x="1054" d="M124 800L80 918Q123 938 189 982T329 1088T467 1224T573 1379T614 1542Q614 1613 570 1652T430 1692Q361 1692 292 1659T184 1592L88 1772Q119 1802 182 1838T332 1900T518 1926Q672 1926 758 1872T880 1735T916
1562Q916 1448 856 1355T694 1181T470 1022L954 1042V800H124Z" />
<glyph unicode="&#xb3;" horiz-adv-x="914" d="M90 830V1012Q128 1005 168 998T248 990Q328 990 397 1008T509 1062T552 1150Q552 1181 538 1212T483 1264T366 1284L242 1254L210 1426Q263 1438 324 1455T414 1494Q452 1521 477 1547T504 1616Q506 1664 459 1687T352
1710Q268 1710 216 1686T130 1638L56 1822Q73 1845 127 1870T254 1912T402 1930Q549 1930 636 1895T762 1798T800 1660Q800 1548 731 1475T566 1364V1384Q679 1385 742 1346T832 1249T858 1136Q858 1038 793 958T612 830T340 782Q226 782 167 802T90 830Z" />
<glyph unicode="&#xb4;" horiz-adv-x="684" d="M206 1208L36 1364Q81 1409 140 1478T260 1627T368 1782L604 1598Q581 1543 529 1482T414 1364T295 1266T206 1208Z" />
<glyph unicode="&#xb5;" horiz-adv-x="1374" d="M146 -362V1114H508V478Q508 360 547 305T674 250Q696 250 723 255T776 272T822 302V1114H1184V308Q1184 263 1200 249T1232 234Q1241 234 1264 239T1314 260L1344 84Q1338 74 1304 50T1210 4T1070 -18Q997 -18
949 15T892 118Q876 88 846 57T768 5T648 -16Q545 -16 480 19T380 148L438 158L474 -362H146Z" />
<glyph unicode="&#xb6;" horiz-adv-x="1500" d="M564 0V758Q441 758 345 805T195 954T140 1218Q140 1431 283 1550T736 1670Q791 1670 863 1668T1014 1662T1170 1656T1314 1652V0H1038L1036 1460H842V0H564Z" />
<glyph unicode="&#xb7;" horiz-adv-x="654" d="M320 554Q230 554 174 613T118 760Q118 819 146 869T224 951T336 982Q428 982 482 924T536 778Q536 719 508 668T430 586T320 554Z" />
<glyph unicode="&#xb8;" horiz-adv-x="516" d="M28 -426L50 -250Q64 -257 82 -259T124 -262Q171 -262 204 -225T238 -116Q240 -57 228 -26T202 30L358 34L410 30Q432 11 446 -29T467 -118T474 -210Q473 -336 397 -395T214 -454Q185 -454 147 -451T75 -441T28 -426Z" />
<glyph unicode="&#xb9;" horiz-adv-x="856" d="M356 800V1602Q323 1584 276 1571T182 1551T100 1542L60 1706Q154 1724 235 1764T378 1850T478 1936V1934L656 1888L654 800H356Z" />
<glyph unicode="&#xba;" horiz-adv-x="1052" d="M64 1132Q66 1257 108 1345T219 1488T373 1568T542 1594Q684 1594 781 1533T928 1362T976 1112Q973 946 907 844T736 695T518 648Q296 648 179 780T64 1132ZM362 1132Q362 1011 404 937T530 864Q604 866 641 923T678
1110Q678 1235 641 1306T530 1376Q452 1375 407 1320T362 1132Z" />
<glyph unicode="&#xbb;" horiz-adv-x="1990" d="M1766 462L1118 54L1034 302L1502 664V538L1034 900L1118 1146L1766 740V462ZM940 462L312 54L228 302L676 664V538L228 900L312 1146L940 740V462Z" />
<glyph unicode="&#xbc;" horiz-adv-x="2344" d="M356 780V1582Q323 1564 276 1551T182 1531T100 1522L60 1686Q154 1704 235 1744T378 1830T478 1916V1914L656 1868L654 780H356ZM1474 1916H1712L734 -102H496L1474 1916ZM1360 222L1292 332Q1335 418 1374 495T1450
645T1524 793T1595 946T1668 1114H2002Q1947 1017 1888 918T1770 720T1656 524L1598 428H2284V222H1360ZM1842 0V502L1880 750H2112V0H1842Z" />
<glyph unicode="&#xbd;" horiz-adv-x="2426" d="M356 780V1582Q323 1564 276 1551T182 1531T100 1522L60 1686Q154 1704 235 1744T378 1830T478 1916V1914L656 1868L654 780H356ZM1474 1916H1712L734 -102H496L1474 1916ZM1496 0L1452 118Q1495 138 1561 182T1701
288T1839 424T1945 579T1986 742Q1986 813 1942 852T1802 892Q1733 892 1664 859T1556 792L1460 972Q1491 1002 1554 1038T1704 1100T1890 1126Q2044 1126 2130 1072T2252 935T2288 762Q2288 648 2228 555T2066 381T1842 222L2326 242V0H1496Z" />
<glyph unicode="&#xbe;" horiz-adv-x="2402" d="M90 810V992Q128 985 168 978T248 970Q328 970 397 988T509 1042T552 1130Q552 1161 538 1192T483 1244T366 1264L242 1234L210 1406Q263 1418 324 1435T414 1474Q452 1501 477 1527T504 1596Q506 1644 459 1667T352
1690Q268 1690 216 1666T130 1618L56 1802Q73 1825 127 1850T254 1892T402 1910Q549 1910 636 1875T762 1778T800 1640Q800 1528 731 1455T566 1344V1364Q679 1365 742 1326T832 1229T858 1116Q858 1018 793 938T612 810T340 762Q226 762 167 782T90 810ZM1532
1916H1770L792 -102H554L1532 1916ZM1418 222L1350 332Q1393 418 1432 495T1508 645T1582 793T1653 946T1726 1114H2060Q2005 1017 1946 918T1828 720T1714 524L1656 428H2342V222H1418ZM1900 0V502L1938 750H2170V0H1900Z" />
<glyph unicode="&#xbf;" horiz-adv-x="1108" d="M786 966Q810 926 834 869T858 720Q859 628 824 565T736 453T632 362T544 267T508 142Q508 58 567 9T774 -40Q855 -40 914 -23T1004 8V-254Q980 -270 928 -283T811 -305T684 -314Q540 -314 434 -285T257 -200T153
-67T120 104Q120 202 150 269T227 385T327 474T429 556T509 651T544 780Q547 824 536 867T510 966H786ZM636 1510Q722 1510 776 1454T830 1314Q831 1258 803 1210T726 1133T618 1104Q531 1104 479 1159T426 1298Q426 1354 454 1402T529 1480T636 1510Z" />
<glyph unicode="&#xc0;" horiz-adv-x="1426" d="M372 0H-18L500 1496H922L1444 0H1050L752 1002L704 1196L654 1002L372 0ZM306 278L348 538H1030L1070 278H306ZM860 1726L690 1598Q660 1608 615 1641T519 1721T424 1819T350 1914L606 2042Q614 2019 638 1984T695
1909T761 1832T821 1767T860 1726Z" />
<glyph unicode="&#xc1;" horiz-adv-x="1426" d="M372 0H-18L500 1496H922L1444 0H1050L752 1002L704 1196L654 1002L372 0ZM306 278L348 538H1030L1070 278H306ZM694 1598L526 1726Q538 1738 565 1766T625 1832T691 1908T748 1983T780 2042L1036 1914Q1005 1869
961 1819T867 1722T773 1642T694 1598Z" />
<glyph unicode="&#xc2;" horiz-adv-x="1426" d="M372 0H-18L500 1496H922L1444 0H1050L752 1002L704 1196L654 1002L372 0ZM306 278L348 538H1030L1070 278H306ZM494 1574L320 1686L598 1986H828L1108 1688L934 1574L712 1762L494 1574Z" />
<glyph unicode="&#xc3;" horiz-adv-x="1426" d="M372 0H-18L500 1496H922L1444 0H1050L752 1002L704 1196L654 1002L372 0ZM306 278L348 538H1030L1070 278H306ZM876 1628Q820 1628 778 1649T700 1697T633 1745T566 1766Q538 1766 516 1756T476 1722T442 1658L310
1704Q310 1788 345 1850T437 1947T556 1982Q612 1982 654 1961T731 1913T797 1865T862 1844Q887 1844 909 1853T951 1885T986 1952L1118 1906Q1118 1822 1084 1760T995 1663T876 1628Z" />
<glyph unicode="&#xc4;" horiz-adv-x="1426" d="M372 0H-18L500 1496H922L1444 0H1050L752 1002L704 1196L654 1002L372 0ZM306 278L348 538H1030L1070 278H306ZM444 1626Q363 1626 315 1674T266 1798Q266 1876 322 1930T460 1984Q543 1984 589 1938T636 1814Q636
1736 582 1681T444 1626ZM970 1626Q891 1626 842 1674T792 1798Q792 1876 849 1930T988 1984Q1071 1984 1116 1938T1162 1814Q1162 1736 1108 1681T970 1626Z" />
<glyph unicode="&#xc5;" horiz-adv-x="1426" d="M372 0H-18L500 1496H922L1444 0H1050L752 1002L704 1196L654 1002L372 0ZM306 278L348 538H1030L1070 278H306ZM708 1452Q542 1452 449 1528T358 1746Q360 1852 413 1912T549 1997T720 2022Q882 2022 976 1953T1070
1740Q1069 1634 1018 1571T884 1480T708 1452ZM712 1618Q784 1617 827 1637T870 1736Q870 1802 826 1832T712 1862Q651 1864 605 1842T558 1742Q558 1681 601 1650T712 1618Z" />
<glyph unicode="&#xc6;" horiz-adv-x="1924" d="M-116 0L588 1486L874 1366L284 0H-116ZM846 1486L896 1344H636L588 1486H846ZM280 310L326 566H1002L1018 310H280ZM846 0V1486H1780V1208H1214V898H1648V626H1214V284H1838V0H846Z" />
<glyph unicode="&#xc7;" horiz-adv-x="1288" d="M84 740Q84 929 142 1071T304 1310T546 1454T844 1502Q947 1502 1016 1491T1136 1465T1232 1442L1184 1122Q1163 1136 1125 1156T1025 1192T874 1208Q760 1208 668 1157T522 1006T468 762Q468 615 515 505T657 334T890
272Q953 272 1018 287T1135 325T1212 368V62Q1174 46 1123 28T1003 -3T848 -16Q602 -16 432 77T173 340T84 740ZM432 -426L454 -250Q468 -257 486 -259T528 -262Q575 -262 608 -225T642 -116Q644 -57 632 -26T606 30L762 34L814 30Q836 11 850 -29T872 -118T878
-210Q876 -294 841 -348T747 -428T618 -454Q589 -454 551 -451T479 -441T432 -426Z" />
<glyph unicode="&#xc8;" horiz-adv-x="1232" d="M160 0V1486H1100V1208H530V894H970V624H530V284H1158V0H160ZM782 1726L612 1598Q582 1608 537 1641T441 1721T346 1819T272 1914L528 2042Q536 2019 560 1984T617 1909T683 1832T743 1767T782 1726Z" />
<glyph unicode="&#xc9;" horiz-adv-x="1232" d="M160 0V1486H1100V1208H530V894H970V624H530V284H1158V0H160ZM616 1598L448 1726Q460 1738 487 1766T547 1832T613 1908T670 1983T702 2042L958 1914Q927 1869 883 1819T789 1722T695 1642T616 1598Z" />
<glyph unicode="&#xca;" horiz-adv-x="1232" d="M160 0V1486H1100V1208H530V894H970V624H530V284H1158V0H160ZM416 1574L242 1686L520 1986H750L1030 1688L856 1574L634 1762L416 1574Z" />
<glyph unicode="&#xcb;" horiz-adv-x="1232" d="M160 0V1486H1100V1208H530V894H970V624H530V284H1158V0H160ZM366 1626Q285 1626 237 1674T188 1798Q188 1876 244 1930T382 1984Q465 1984 511 1938T558 1814Q558 1736 504 1681T366 1626ZM892 1626Q813 1626 764
1674T714 1798Q714 1876 771 1930T910 1984Q993 1984 1038 1938T1084 1814Q1084 1736 1030 1681T892 1626Z" />
<glyph unicode="&#xcc;" horiz-adv-x="736" d="M180 0V1486H556V0H180ZM516 1726L346 1598Q316 1608 271 1641T175 1721T80 1819T6 1914L262 2042Q270 2019 294 1984T351 1909T417 1832T477 1767T516 1726Z" />
<glyph unicode="&#xcd;" horiz-adv-x="736" d="M180 0V1486H556V0H180ZM350 1598L182 1726Q194 1738 221 1766T281 1832T347 1908T404 1983T436 2042L692 1914Q661 1869 617 1819T523 1722T429 1642T350 1598Z" />
<glyph unicode="&#xce;" horiz-adv-x="736" d="M180 0V1486H556V0H180ZM150 1574L-24 1686L254 1986H484L764 1688L590 1574L368 1762L150 1574Z" />
<glyph unicode="&#xcf;" horiz-adv-x="736" d="M180 0V1486H556V0H180ZM100 1626Q19 1626 -29 1674T-78 1798Q-78 1876 -22 1930T116 1984Q199 1984 245 1938T292 1814Q292 1736 238 1681T100 1626ZM626 1626Q547 1626 498 1674T448 1798Q448 1876 505 1930T644
1984Q727 1984 772 1938T818 1814Q818 1736 764 1681T626 1626Z" />
<glyph unicode="&#xd0;" horiz-adv-x="1524" d="M58 660V892H830V660H58ZM160 0V1486Q183 1486 206 1486T252 1486T298 1486Q335 1486 404 1490T554 1498T704 1502Q1082 1502 1258 1313T1434 780Q1434 527 1345 349T1088 77T682 -16Q573 -14 476 -7T292 0Q270
0 248 0T204 0T160 0ZM534 274Q563 265 609 262T704 258Q808 259 885 311T1005 471T1048 748Q1048 927 1009 1033T891 1187T690 1234Q653 1234 607 1230T534 1220V274Z" />
<glyph unicode="&#xd1;" horiz-adv-x="1576" d="M160 0V1486H508L1016 670L1206 270H1138L1078 832V1486H1416V0H1042L560 796L342 1252H424L498 642V0H160ZM956 1628Q900 1628 858 1649T780 1697T713 1745T646 1766Q618 1766 596 1756T556 1722T522 1658L390
1704Q390 1788 425 1850T517 1947T636 1982Q692 1982 734 1961T811 1913T877 1865T942 1844Q967 1844 989 1853T1031 1885T1066 1952L1198 1906Q1198 1822 1164 1760T1075 1663T956 1628Z" />
<glyph unicode="&#xd2;" horiz-adv-x="1552" d="M772 -16Q552 -20 397 73T161 340T84 750Q89 1014 181 1177T434 1418T800 1502Q1011 1508 1162 1417T1392 1153T1468 746Q1463 482 1374 315T1130 68T772 -16ZM778 252Q922 252 1005 368T1088 756Q1088 896 1056
1002T959 1167T794 1226Q703 1226 628 1181T509 1030T464 740Q464 598 499 488T603 315T778 252ZM936 1726L766 1598Q736 1608 691 1641T595 1721T500 1819T426 1914L682 2042Q690 2019 714 1984T771 1909T837 1832T897 1767T936 1726Z" />
<glyph unicode="&#xd3;" horiz-adv-x="1552" d="M772 -16Q552 -20 397 73T161 340T84 750Q89 1014 181 1177T434 1418T800 1502Q1011 1508 1162 1417T1392 1153T1468 746Q1463 482 1374 315T1130 68T772 -16ZM778 252Q922 252 1005 368T1088 756Q1088 896 1056
1002T959 1167T794 1226Q703 1226 628 1181T509 1030T464 740Q464 598 499 488T603 315T778 252ZM770 1598L602 1726Q614 1738 641 1766T701 1832T767 1908T824 1983T856 2042L1112 1914Q1081 1869 1037 1819T943 1722T849 1642T770 1598Z" />
<glyph unicode="&#xd4;" horiz-adv-x="1552" d="M772 -16Q552 -20 397 73T161 340T84 750Q89 1014 181 1177T434 1418T800 1502Q1011 1508 1162 1417T1392 1153T1468 746Q1463 482 1374 315T1130 68T772 -16ZM778 252Q922 252 1005 368T1088 756Q1088 896 1056
1002T959 1167T794 1226Q703 1226 628 1181T509 1030T464 740Q464 598 499 488T603 315T778 252ZM570 1574L396 1686L674 1986H904L1184 1688L1010 1574L788 1762L570 1574Z" />
<glyph unicode="&#xd5;" horiz-adv-x="1552" d="M772 -16Q552 -20 397 73T161 340T84 750Q89 1014 181 1177T434 1418T800 1502Q1011 1508 1162 1417T1392 1153T1468 746Q1463 482 1374 315T1130 68T772 -16ZM778 252Q922 252 1005 368T1088 756Q1088 896 1056
1002T959 1167T794 1226Q703 1226 628 1181T509 1030T464 740Q464 598 499 488T603 315T778 252ZM952 1628Q896 1628 854 1649T776 1697T709 1745T642 1766Q614 1766 592 1756T552 1722T518 1658L386 1704Q386 1788 421 1850T513 1947T632 1982Q688 1982 730 1961T807
1913T873 1865T938 1844Q963 1844 985 1853T1027 1885T1062 1952L1194 1906Q1194 1822 1160 1760T1071 1663T952 1628Z" />
<glyph unicode="&#xd6;" horiz-adv-x="1552" d="M772 -16Q552 -20 397 73T161 340T84 750Q89 1014 181 1177T434 1418T800 1502Q1011 1508 1162 1417T1392 1153T1468 746Q1463 482 1374 315T1130 68T772 -16ZM778 252Q922 252 1005 368T1088 756Q1088 896 1056
1002T959 1167T794 1226Q703 1226 628 1181T509 1030T464 740Q464 598 499 488T603 315T778 252ZM520 1626Q439 1626 391 1674T342 1798Q342 1876 398 1930T536 1984Q619 1984 665 1938T712 1814Q712 1736 658 1681T520 1626ZM1046 1626Q967 1626 918 1674T868
1798Q868 1876 925 1930T1064 1984Q1147 1984 1192 1938T1238 1814Q1238 1736 1184 1681T1046 1626Z" />
<glyph unicode="&#xd7;" horiz-adv-x="1370" d="M146 382L516 756L146 1144L328 1320L686 930L1044 1320L1226 1144L856 758L1224 382L1042 202L684 580L328 202L146 382Z" />
<glyph unicode="&#xd8;" horiz-adv-x="1566" d="M358 -228L230 -204L1216 1768L1344 1742L358 -228ZM778 -16Q558 -20 403 73T167 340T90 750Q95 1014 187 1177T440 1418T806 1502Q1017 1508 1168 1417T1398 1153T1474 746Q1469 482 1380 315T1136 68T778 -16ZM784
256Q927 256 1008 372T1090 756Q1090 895 1059 1000T964 1163T800 1222Q710 1222 636 1178T518 1028T474 740Q474 599 508 490T611 319T784 256Z" />
<glyph unicode="&#xd9;" horiz-adv-x="1506" d="M760 -16Q530 -16 392 64T193 288T132 624L136 1486H506L502 668Q501 512 529 428T614 311T754 278Q838 278 894 312T978 431T1006 668V1486H1374V618Q1374 320 1228 152T760 -16ZM898 1726L728 1598Q698 1608 653
1641T557 1721T462 1819T388 1914L644 2042Q652 2019 676 1984T733 1909T799 1832T859 1767T898 1726Z" />
<glyph unicode="&#xda;" horiz-adv-x="1506" d="M760 -16Q530 -16 392 64T193 288T132 624L136 1486H506L502 668Q501 512 529 428T614 311T754 278Q838 278 894 312T978 431T1006 668V1486H1374V618Q1374 320 1228 152T760 -16ZM732 1598L564 1726Q576 1738 603
1766T663 1832T729 1908T786 1983T818 2042L1074 1914Q1043 1869 999 1819T905 1722T811 1642T732 1598Z" />
<glyph unicode="&#xdb;" horiz-adv-x="1506" d="M760 -16Q530 -16 392 64T193 288T132 624L136 1486H506L502 668Q501 512 529 428T614 311T754 278Q838 278 894 312T978 431T1006 668V1486H1374V618Q1374 320 1228 152T760 -16ZM532 1574L358 1686L636 1986H866L1146
1688L972 1574L750 1762L532 1574Z" />
<glyph unicode="&#xdc;" horiz-adv-x="1506" d="M760 -16Q530 -16 392 64T193 288T132 624L136 1486H506L502 668Q501 512 529 428T614 311T754 278Q838 278 894 312T978 431T1006 668V1486H1374V618Q1374 320 1228 152T760 -16ZM482 1626Q401 1626 353 1674T304
1798Q304 1876 360 1930T498 1984Q581 1984 627 1938T674 1814Q674 1736 620 1681T482 1626ZM1008 1626Q929 1626 880 1674T830 1798Q830 1876 887 1930T1026 1984Q1109 1984 1154 1938T1200 1814Q1200 1736 1146 1681T1008 1626Z" />
<glyph unicode="&#xdd;" horiz-adv-x="1258" d="M438 0V592L470 460L-52 1486H356L576 1006L666 770H616L692 1006L916 1486H1310L784 458L818 592V0H438ZM622 1598L454 1726Q466 1738 493 1766T553 1832T619 1908T676 1983T708 2042L964 1914Q933 1869 889 1819T795
1722T701 1642T622 1598Z" />
<glyph unicode="&#xde;" horiz-adv-x="1352" d="M748 230Q669 230 610 233T522 240V502Q561 495 597 494T666 492Q738 492 797 516T892 600T928 772Q928 879 863 940T666 998Q626 998 591 994T520 980L498 1254Q557 1257 629 1262T772 1268Q1017 1268 1155 1146T1294
786Q1294 528 1154 379T748 230ZM160 0V1486H534V0H160Z" />
<glyph unicode="&#xdf;" horiz-adv-x="1380" d="M172 0V960Q172 1170 258 1298T490 1484T810 1542Q953 1542 1052 1503T1204 1395T1256 1242Q1256 1171 1233 1124T1177 1046T1110 990T1053 941T1030 880Q1030 844 1061 810T1139 737T1231 646T1308 525T1340 362Q1340
249 1304 176T1205 60T1066 1T906 -16Q828 -16 762 -5T672 20V260Q687 253 727 239T814 224Q847 224 881 235T940 274T964 354Q964 409 939 451T876 531T801 610T738 702T712 822Q712 890 740 933T806 1011T871 1086T900 1190Q900 1246 864 1280T760 1314Q692 1314
642 1278T565 1158T538 930V0H172ZM40 876V1094L196 1126L224 1010L174 876H40Z" />
<glyph unicode="&#xe0;" horiz-adv-x="1234" d="M446 -16Q336 -16 255 29T129 155T84 340Q84 438 137 510T284 622Q351 651 430 665T588 685T738 690L790 626L738 516Q703 515 666 511T595 499T542 482Q511 469 484 444T456 358Q456 279 499 244T598 208Q627 208
655 215T706 232T738 254L796 180L756 94Q710 54 635 19T446 -16ZM1098 0H756V166H738V756Q738 830 698 853T582 876Q518 876 449 866T314 839T200 798L126 1010Q167 1035 244 1063T419 1112T616 1132Q791 1132 897 1091T1050 958T1098 712V0ZM736 1432L602 1278Q568
1295 511 1338T390 1439T273 1561T194 1682L402 1866Q443 1798 502 1715T624 1555T736 1432Z" />
<glyph unicode="&#xe1;" horiz-adv-x="1234" d="M446 -16Q336 -16 255 29T129 155T84 340Q84 438 137 510T284 622Q351 651 430 665T588 685T738 690L790 626L738 516Q703 515 666 511T595 499T542 482Q511 469 484 444T456 358Q456 279 499 244T598 208Q627 208
655 215T706 232T738 254L796 180L756 94Q710 54 635 19T446 -16ZM1098 0H756V166H738V756Q738 830 698 853T582 876Q518 876 449 866T314 839T200 798L126 1010Q167 1035 244 1063T419 1112T616 1132Q791 1132 897 1091T1050 958T1098 712V0ZM546 1278L381 1430Q428
1475 485 1544T600 1693T704 1848L940 1664Q921 1620 884 1572T800 1477T704 1390T614 1320T546 1278Z" />
<glyph unicode="&#xe2;" horiz-adv-x="1234" d="M446 -16Q336 -16 255 29T129 155T84 340Q84 438 137 510T284 622Q351 651 430 665T588 685T738 690L790 626L738 516Q703 515 666 511T595 499T542 482Q511 469 484 444T456 358Q456 279 499 244T598 208Q627 208
655 215T706 232T738 254L796 180L756 94Q710 54 635 19T446 -16ZM1098 0H756V166H738V756Q738 830 698 853T582 876Q518 876 449 866T314 839T200 798L126 1010Q167 1035 244 1063T419 1112T616 1132Q791 1132 897 1091T1050 958T1098 712V0ZM364 1232L192 1332L490
1692H708L1004 1332L832 1232L598 1442L364 1232Z" />
<glyph unicode="&#xe3;" horiz-adv-x="1234" d="M446 -16Q336 -16 255 29T129 155T84 340Q84 438 137 510T284 622Q351 651 430 665T588 685T738 690L790 626L738 516Q703 515 666 511T595 499T542 482Q511 469 484 444T456 358Q456 279 499 244T598 208Q627 208
655 215T706 232T738 254L796 180L756 94Q710 54 635 19T446 -16ZM1098 0H756V166H738V756Q738 830 698 853T582 876Q518 876 449 866T314 839T200 798L126 1010Q167 1035 244 1063T419 1112T616 1132Q791 1132 897 1091T1050 958T1098 712V0ZM738 1272Q683 1272
643 1294T570 1345T508 1396T442 1418Q414 1418 393 1408T354 1374T320 1310L186 1356Q186 1440 225 1504T325 1605T450 1642Q506 1642 546 1620T619 1569T682 1518T746 1496Q771 1496 792 1505T833 1537T868 1604L1002 1558Q1002 1474 963 1410T863 1309T738 1272Z"
/>
<glyph unicode="&#xe4;" horiz-adv-x="1234" d="M446 -16Q336 -16 255 29T129 155T84 340Q84 438 137 510T284 622Q351 651 430 665T588 685T738 690L790 626L738 516Q703 515 666 511T595 499T542 482Q511 469 484 444T456 358Q456 279 499 244T598 208Q627 208
655 215T706 232T738 254L796 180L756 94Q710 54 635 19T446 -16ZM1098 0H756V166H738V756Q738 830 698 853T582 876Q518 876 449 866T314 839T200 798L126 1010Q167 1035 244 1063T419 1112T616 1132Q791 1132 897 1091T1050 958T1098 712V0ZM340 1272Q256 1272
205 1324T154 1458Q154 1539 214 1598T356 1658Q442 1658 490 1607T538 1474Q538 1392 481 1332T340 1272ZM844 1272Q762 1272 711 1324T660 1458Q660 1539 719 1598T862 1658Q946 1658 995 1607T1044 1474Q1044 1392 987 1332T844 1272Z" />
<glyph unicode="&#xe5;" horiz-adv-x="1234" d="M446 -16Q336 -16 255 29T129 155T84 340Q84 438 137 510T284 622Q351 651 430 665T588 685T738 690L790 626L738 516Q703 515 666 511T595 499T542 482Q511 469 484 444T456 358Q456 279 499 244T598 208Q627 208
655 215T706 232T738 254L796 180L756 94Q710 54 635 19T446 -16ZM1098 0H756V166H738V756Q738 830 698 853T582 876Q518 876 449 866T314 839T200 798L126 1010Q167 1035 244 1063T419 1112T616 1132Q791 1132 897 1091T1050 958T1098 712V0ZM594 1266Q428 1266
335 1348T244 1572Q246 1678 299 1741T435 1833T604 1862Q766 1862 860 1786T952 1566Q951 1460 900 1394T768 1297T594 1266ZM598 1430Q669 1430 710 1458T752 1562Q752 1628 709 1664T598 1702Q557 1703 522 1691T466 1650T444 1570Q444 1509 487 1470T598 1430Z"
/>
<glyph unicode="&#xe6;" horiz-adv-x="1834" d="M1284 -16Q1016 -16 874 137T732 562Q732 724 797 852T986 1054T1286 1128Q1375 1128 1457 1108T1606 1037T1710 898T1750 676Q1750 616 1748 564T1740 476H918L938 652H1418Q1423 733 1411 787T1366 869T1278 896Q1216
896 1173 862T1108 743T1088 510Q1090 413 1123 355T1219 270T1368 244Q1421 244 1479 252T1587 273T1664 300L1718 104Q1682 74 1618 47T1468 2T1284 -16ZM90 326Q90 425 146 502T296 620Q392 662 513 676T734 690L786 626L740 516Q677 516 627 506T546 482Q515
469 486 443T456 352Q456 276 499 242T598 208Q633 208 669 220T736 252T784 300L856 250L872 166Q793 70 681 27T452 -16Q348 -16 266 24T137 141T90 326ZM208 794L132 1010Q153 1022 222 1051T396 1106T632 1132Q783 1132 875 1094T1008 961T1050 694V584L734
582V750Q734 795 713 822T647 862T534 874Q472 874 406 861T287 828T208 794Z" />
<glyph unicode="&#xe7;" horiz-adv-x="1008" d="M68 546Q68 709 128 841T312 1050T632 1128Q745 1128 829 1111T940 1074L900 802Q867 820 815 834T682 848Q624 848 568 823T474 738T434 572Q432 457 465 389T556 292T684 262Q755 262 815 274T912 302L958 74Q912
26 813 5T606 -16Q422 -16 303 57T126 258T68 546ZM192 -426L214 -250Q228 -257 246 -259T288 -262Q335 -262 368 -225T402 -116Q404 -57 392 -26T366 30L522 34L574 30Q596 11 610 -29T632 -118T638 -210Q636 -294 601 -348T507 -428T378 -454Q349 -454 311 -451T239
-441T192 -426Z" />
<glyph unicode="&#xe8;" horiz-adv-x="1192" d="M638 -16Q368 -16 226 137T84 562Q84 724 150 852T340 1054T642 1128Q731 1128 814 1108T963 1037T1069 898T1110 676Q1110 616 1107 562T1098 472H270L290 652H774Q779 733 767 787T722 869T634 896Q571 896 528
862T462 743T442 510Q444 413 477 354T573 267T722 240Q776 240 835 248T944 269T1022 296L1078 104Q1041 74 976 47T824 2T638 -16ZM776 1434L642 1280Q608 1297 551 1340T430 1441T313 1563T234 1684L442 1868Q483 1800 542 1717T664 1557T776 1434Z" />
<glyph unicode="&#xe9;" horiz-adv-x="1192" d="M638 -16Q368 -16 226 137T84 562Q84 724 150 852T340 1054T642 1128Q731 1128 814 1108T963 1037T1069 898T1110 676Q1110 616 1107 562T1098 472H270L290 652H774Q779 733 767 787T722 869T634 896Q571 896 528
862T462 743T442 510Q444 413 477 354T573 267T722 240Q776 240 835 248T944 269T1022 296L1078 104Q1041 74 976 47T824 2T638 -16ZM586 1280L421 1432Q468 1477 525 1546T640 1695T744 1850L980 1666Q961 1622 924 1574T840 1479T744 1392T654 1322T586 1280Z"
/>
<glyph unicode="&#xea;" horiz-adv-x="1192" d="M638 -16Q368 -16 226 137T84 562Q84 724 150 852T340 1054T642 1128Q731 1128 814 1108T963 1037T1069 898T1110 676Q1110 616 1107 562T1098 472H270L290 652H774Q779 733 767 787T722 869T634 896Q571 896 528
862T462 743T442 510Q444 413 477 354T573 267T722 240Q776 240 835 248T944 269T1022 296L1078 104Q1041 74 976 47T824 2T638 -16ZM404 1234L232 1334L530 1694H748L1044 1334L872 1234L638 1444L404 1234Z" />
<glyph unicode="&#xeb;" horiz-adv-x="1192" d="M638 -16Q368 -16 226 137T84 562Q84 724 150 852T340 1054T642 1128Q731 1128 814 1108T963 1037T1069 898T1110 676Q1110 616 1107 562T1098 472H270L290 652H774Q779 733 767 787T722 869T634 896Q571 896 528
862T462 743T442 510Q444 413 477 354T573 267T722 240Q776 240 835 248T944 269T1022 296L1078 104Q1041 74 976 47T824 2T638 -16ZM380 1274Q296 1274 245 1326T194 1460Q194 1541 254 1600T396 1660Q482 1660 530 1609T578 1476Q578 1394 521 1334T380 1274ZM884
1274Q802 1274 751 1326T700 1460Q700 1541 759 1600T902 1660Q986 1660 1035 1609T1084 1476Q1084 1394 1027 1334T884 1274Z" />
<glyph unicode="&#xec;" horiz-adv-x="658" d="M148 0V1114H510V0H148ZM466 1432L332 1278Q298 1295 241 1338T120 1439T3 1561T-76 1682L132 1866Q173 1798 232 1715T354 1555T466 1432Z" />
<glyph unicode="&#xed;" horiz-adv-x="658" d="M148 0V1114H510V0H148ZM276 1278L111 1430Q158 1475 215 1544T330 1693T434 1848L670 1664Q651 1620 614 1572T530 1477T434 1390T344 1320T276 1278Z" />
<glyph unicode="&#xee;" horiz-adv-x="658" d="M148 0V1114H510V0H148ZM94 1232L-78 1332L220 1692H438L734 1332L562 1232L328 1442L94 1232Z" />
<glyph unicode="&#xef;" horiz-adv-x="658" d="M148 0V1114H510V0H148ZM70 1272Q-14 1272 -65 1324T-116 1458Q-116 1539 -56 1598T86 1658Q172 1658 220 1607T268 1474Q268 1392 211 1332T70 1272ZM574 1272Q492 1272 441 1324T390 1458Q390 1539 449 1598T592
1658Q676 1658 725 1607T774 1474Q774 1392 717 1332T574 1272Z" />
<glyph unicode="&#xf0;" horiz-adv-x="1290" d="M648 -26Q475 -26 348 45T152 244T82 538Q82 705 143 837T320 1045T602 1122Q690 1122 751 1098T850 1039T902 968L818 998Q791 1129 709 1234T512 1416Q502 1422 480 1438T446 1462Q395 1497 335 1529T212 1580L270
1766Q365 1739 431 1716T570 1650Q584 1643 613 1629T656 1606Q830 1514 957 1364T1154 1029T1224 650Q1224 412 1144 263T933 44T648 -26ZM652 224Q705 224 751 261T825 376T854 578Q854 605 854 648T853 734T850 802Q829 835 778 862T662 890Q571 890 517 798T462
524Q462 368 516 296T652 224ZM452 1216L292 1328L464 1550L486 1582Q502 1599 532 1639T595 1724T649 1802T672 1834L836 1720Q836 1720 815 1692T762 1623T700 1545T650 1488L626 1452L452 1216Z" />
<glyph unicode="&#xf1;" horiz-adv-x="1314" d="M144 0V1114H474L482 984Q517 1019 574 1052T701 1107T846 1130Q1016 1133 1101 1038T1186 702V0H824V636Q824 758 793 803T682 846Q656 846 624 838T561 814T504 774V0H144ZM814 1272Q759 1272 719 1294T646 1345T584
1396T518 1418Q490 1418 469 1408T430 1374T396 1310L262 1356Q262 1440 301 1504T401 1605T526 1642Q582 1642 622 1620T695 1569T758 1518T822 1496Q847 1496 868 1505T909 1537T944 1604L1078 1558Q1078 1474 1039 1410T939 1309T814 1272Z" />
<glyph unicode="&#xf2;" horiz-adv-x="1250" d="M616 -16Q462 -16 355 31T182 162T88 352T60 580Q63 758 137 880T340 1065T636 1128Q842 1128 964 1046T1140 829T1190 534Q1188 355 1115 233T912 47T616 -16ZM624 234Q731 234 772 312T814 550Q814 640 797 714T740
833T630 878Q521 878 479 799T436 568Q436 476 453 400T512 279T624 234ZM770 1432L636 1278Q602 1295 545 1338T424 1439T307 1561T228 1682L436 1866Q477 1798 536 1715T658 1555T770 1432Z" />
<glyph unicode="&#xf3;" horiz-adv-x="1250" d="M616 -16Q462 -16 355 31T182 162T88 352T60 580Q63 758 137 880T340 1065T636 1128Q842 1128 964 1046T1140 829T1190 534Q1188 355 1115 233T912 47T616 -16ZM624 234Q731 234 772 312T814 550Q814 640 797 714T740
833T630 878Q521 878 479 799T436 568Q436 476 453 400T512 279T624 234ZM580 1278L415 1430Q462 1475 519 1544T634 1693T738 1848L974 1664Q955 1620 918 1572T834 1477T738 1390T648 1320T580 1278Z" />
<glyph unicode="&#xf4;" horiz-adv-x="1250" d="M616 -16Q462 -16 355 31T182 162T88 352T60 580Q63 758 137 880T340 1065T636 1128Q842 1128 964 1046T1140 829T1190 534Q1188 355 1115 233T912 47T616 -16ZM624 234Q731 234 772 312T814 550Q814 640 797 714T740
833T630 878Q521 878 479 799T436 568Q436 476 453 400T512 279T624 234ZM398 1232L226 1332L524 1692H742L1038 1332L866 1232L632 1442L398 1232Z" />
<glyph unicode="&#xf5;" horiz-adv-x="1250" d="M616 -16Q462 -16 355 31T182 162T88 352T60 580Q63 758 137 880T340 1065T636 1128Q842 1128 964 1046T1140 829T1190 534Q1188 355 1115 233T912 47T616 -16ZM624 234Q731 234 772 312T814 550Q814 640 797 714T740
833T630 878Q521 878 479 799T436 568Q436 476 453 400T512 279T624 234ZM772 1272Q717 1272 677 1294T604 1345T542 1396T476 1418Q448 1418 427 1408T388 1374T354 1310L220 1356Q220 1440 259 1504T359 1605T484 1642Q540 1642 580 1620T653 1569T716 1518T780
1496Q805 1496 826 1505T867 1537T902 1604L1036 1558Q1036 1474 997 1410T897 1309T772 1272Z" />
<glyph unicode="&#xf6;" horiz-adv-x="1250" d="M616 -16Q462 -16 355 31T182 162T88 352T60 580Q63 758 137 880T340 1065T636 1128Q842 1128 964 1046T1140 829T1190 534Q1188 355 1115 233T912 47T616 -16ZM624 234Q731 234 772 312T814 550Q814 640 797 714T740
833T630 878Q521 878 479 799T436 568Q436 476 453 400T512 279T624 234ZM374 1272Q290 1272 239 1324T188 1458Q188 1539 248 1598T390 1658Q476 1658 524 1607T572 1474Q572 1392 515 1332T374 1272ZM878 1272Q796 1272 745 1324T694 1458Q694 1539 753 1598T896
1658Q980 1658 1029 1607T1078 1474Q1078 1392 1021 1332T878 1272Z" />
<glyph unicode="&#xf7;" horiz-adv-x="1384" d="M708 1004Q618 1004 562 1062T506 1208Q507 1266 536 1315T615 1395T726 1426Q819 1426 871 1369T924 1224Q924 1166 896 1116T819 1035T708 1004ZM706 94Q616 94 560 152T504 298Q504 356 533 405T613 485T724
516Q816 516 869 459T922 314Q922 256 894 206T817 125T706 94ZM186 624V886H1198V624H186Z" />
<glyph unicode="&#xf8;" horiz-adv-x="1304" d="M306 -204L868 1352L998 1324L434 -228L306 -204ZM640 -16Q486 -16 379 31T206 162T112 352T84 580Q87 758 161 880T364 1065T660 1128Q866 1128 988 1046T1164 829T1214 534Q1212 355 1139 233T936 47T640 -16ZM648
234Q755 234 803 312T852 550Q852 640 832 714T768 833T654 878Q545 878 497 799T448 568Q448 476 468 400T533 279T648 234Z" />
<glyph unicode="&#xf9;" horiz-adv-x="1296" d="M498 -16Q376 -16 302 19T189 118T137 268T124 458V1114H484V450Q484 366 500 322T549 261T632 244Q665 244 696 252T752 273T790 296V1114H1152V-16H890Q856 -16 839 -5T822 42V112L830 94Q791 62 734 37T615 -2T498
-16ZM788 1432L654 1278Q620 1295 563 1338T442 1439T325 1561T246 1682L454 1866Q495 1798 554 1715T676 1555T788 1432Z" />
<glyph unicode="&#xfa;" horiz-adv-x="1296" d="M498 -16Q376 -16 302 19T189 118T137 268T124 458V1114H484V450Q484 366 500 322T549 261T632 244Q665 244 696 252T752 273T790 296V1114H1152V-16H890Q856 -16 839 -5T822 42V112L830 94Q791 62 734 37T615 -2T498
-16ZM598 1278L433 1430Q480 1475 537 1544T652 1693T756 1848L992 1664Q973 1620 936 1572T852 1477T756 1390T666 1320T598 1278Z" />
<glyph unicode="&#xfb;" horiz-adv-x="1296" d="M498 -16Q376 -16 302 19T189 118T137 268T124 458V1114H484V450Q484 366 500 322T549 261T632 244Q665 244 696 252T752 273T790 296V1114H1152V-16H890Q856 -16 839 -5T822 42V112L830 94Q791 62 734 37T615 -2T498
-16ZM416 1232L244 1332L542 1692H760L1056 1332L884 1232L650 1442L416 1232Z" />
<glyph unicode="&#xfc;" horiz-adv-x="1296" d="M498 -16Q376 -16 302 19T189 118T137 268T124 458V1114H484V450Q484 366 500 322T549 261T632 244Q665 244 696 252T752 273T790 296V1114H1152V-16H890Q856 -16 839 -5T822 42V112L830 94Q791 62 734 37T615 -2T498
-16ZM392 1272Q308 1272 257 1324T206 1458Q206 1539 266 1598T408 1658Q494 1658 542 1607T590 1474Q590 1392 533 1332T392 1272ZM896 1272Q814 1272 763 1324T712 1458Q712 1539 771 1598T914 1658Q998 1658 1047 1607T1096 1474Q1096 1392 1039 1332T896 1272Z"
/>
<glyph unicode="&#xfd;" horiz-adv-x="1180" d="M118 -476V-198Q135 -204 175 -211T240 -218Q292 -218 349 -205T453 -140T524 28L538 0H380L-4 1114H378L538 528L626 162H598L678 528L802 1114H1182L832 -26Q771 -225 677 -325T476 -464Q439 -479 384 -487T284
-496Q269 -496 232 -493T159 -485T118 -476ZM554 1278L389 1430Q436 1475 493 1544T608 1693T712 1848L948 1664Q929 1620 892 1572T808 1477T712 1390T622 1320T554 1278Z" />
<glyph unicode="&#xfe;" horiz-adv-x="1324" d="M156 62L516 10L520 -166V-496H156V62ZM140 1622H496V1220L486 972L496 966V170L140 62V1622ZM654 -20Q566 -20 479 -11T319 13T198 40T140 62L496 256Q511 238 550 230T648 222Q710 222 759 263T837 384T866 576Q866
741 814 800T678 860Q621 860 572 841T496 802L458 988Q481 1013 524 1046T635 1103T802 1128Q921 1128 1020 1071T1180 896T1240 598Q1240 409 1168 271T965 56T654 -20Z" />
<glyph unicode="&#xff;" horiz-adv-x="1180" d="M118 -476V-198Q135 -204 175 -211T240 -218Q292 -218 349 -205T453 -140T524 28L538 0H380L-4 1114H378L538 528L626 162H598L678 528L802 1114H1182L832 -26Q771 -225 677 -325T476 -464Q439 -479 384 -487T284
-496Q269 -496 232 -493T159 -485T118 -476ZM348 1272Q264 1272 213 1324T162 1458Q162 1539 222 1598T364 1658Q450 1658 498 1607T546 1474Q546 1392 489 1332T348 1272ZM852 1272Q770 1272 719 1324T668 1458Q668 1539 727 1598T870 1658Q954 1658 1003 1607T1052
1474Q1052 1392 995 1332T852 1272Z" />
<glyph unicode="&#x2013;" horiz-adv-x="1544" d="M180 520V790H1364V520H180Z" />
<glyph unicode="&#x2014;" horiz-adv-x="2242" d="M180 552V822H2062V552H180Z" />
<glyph unicode="&#x2018;" horiz-adv-x="610" d="M296 894Q253 910 210 959T137 1084T108 1260Q108 1397 145 1490T230 1638T306 1714L456 1622V1594Q440 1574 428 1537T408 1452T400 1350Q400 1257 430 1197T488 1120V1042L296 894Z" />
<glyph unicode="&#x2019;" horiz-adv-x="610" d="M290 894L142 988V1016Q157 1036 170 1073T190 1159T198 1260Q198 1353 168 1413T110 1490V1566L308 1714Q350 1699 392 1652T462 1529T490 1354Q490 1218 452 1124T366 973T290 894Z" />
<glyph unicode="&#x201a;" horiz-adv-x="610" d="M290 -526L142 -432V-404Q157 -384 170 -347T190 -261T198 -160Q198 -67 168 -7T110 70V146L308 294Q350 279 392 232T462 109T490 -66Q490 -202 452 -296T366 -447T290 -526Z" />
<glyph unicode="&#x201c;" horiz-adv-x="1160" d="M296 894Q253 910 210 959T137 1084T108 1260Q108 1397 145 1490T230 1638T306 1714L456 1622V1594Q440 1574 428 1537T408 1452T400 1350Q400 1257 430 1197T488 1120V1042L296 894ZM846 894Q803 910 760 959T687
1084T658 1260Q658 1397 695 1490T780 1638T856 1714L1006 1622V1594Q990 1574 978 1537T958 1452T950 1350Q950 1257 980 1197T1038 1120V1042L846 894Z" />
<glyph unicode="&#x201d;" horiz-adv-x="1164" d="M290 894L142 988V1016Q157 1036 170 1073T190 1159T198 1260Q198 1353 168 1413T110 1490V1566L308 1714Q350 1699 392 1652T462 1529T490 1354Q490 1218 452 1124T366 973T290 894ZM844 894L696 988V1016Q711
1036 724 1073T744 1159T752 1260Q752 1353 722 1413T664 1490V1566L862 1714Q904 1699 946 1652T1016 1529T1044 1354Q1044 1218 1006 1124T920 973T844 894Z" />
<glyph unicode="&#x201e;" horiz-adv-x="1156" d="M290 -522L142 -428V-400Q157 -380 170 -343T190 -257T198 -156Q198 -63 168 -3T110 74V150L308 298Q350 283 392 236T462 113T490 -62Q490 -198 452 -292T366 -443T290 -522ZM836 -522L688 -428V-400Q703 -380
716 -343T736 -257T744 -156Q744 -63 714 -3T656 74V150L854 298Q896 283 938 236T1008 113T1036 -62Q1036 -198 998 -292T912 -443T836 -522Z" />
<glyph unicode="&#x2022;" horiz-adv-x="890" d="M436 430Q355 430 292 465T193 563T158 704Q158 783 199 850T309 957T458 998Q580 998 656 921T732 724Q732 646 692 579T585 471T436 430Z" />
<glyph unicode="&#x2039;" horiz-adv-x="1184" d="M216 462V740L864 1146L948 900L480 538V664L948 302L864 54L216 462Z" />
<glyph unicode="&#x203a;" horiz-adv-x="1184" d="M960 462V740L312 1146L228 900L696 538V664L228 302L312 54L960 462Z" />
</font>
</defs>
</svg>
